<svg width="733" height="89" viewBox="0 0 733 89" fill="none" xmlns="http://www.w3.org/2000/svg">
    <path fill-rule="evenodd" clip-rule="evenodd" d="M32.7658 6.64355H9.39984C4.14271 6.64355 1.51501 17.0568 1.51501 37.8799C1.51501 58.7048 4.14271 69.1163 9.39984 69.1163H32.7658L46.7085 51.4317V24.3282L32.7658 6.64355ZM13.2461 61.7157C10.5537 61.7157 9.20753 53.7716 9.20753 37.8799C9.20753 21.99 10.5537 14.0442 13.2461 14.0442H29.785L39.1122 27.0193V48.26L29.6888 61.7157H13.2461Z" stroke="#010000" stroke-width="0.00873362" stroke-miterlimit="10"/>
    <path fill-rule="evenodd" clip-rule="evenodd" d="M77.4624 1.85718C74.1284 1.85718 72.4622 3.39497 72.4622 6.47055C72.4622 9.61079 74.1284 11.18 77.4624 11.18C80.7946 11.18 82.4625 9.61079 82.4625 6.47055C82.4625 3.39497 80.7946 1.85718 77.4624 1.85718ZM81.3086 41.4553C81.3086 27.8721 77.4624 21.0796 69.7699 21.0796C62.0773 21.0796 58.2311 22.2661 58.2311 24.6357C58.2311 27.0717 60.7941 28.288 65.9236 28.288C71.0514 28.288 73.6161 33.8957 73.6161 45.1076C73.6161 56.3212 71.0514 61.9271 65.9236 61.9271C60.7941 61.9271 58.2311 63.1137 58.2311 65.4833C58.2311 67.9193 64.3204 69.1355 76.5008 69.1355C88.6812 69.1355 94.7705 67.9193 94.7705 65.4833C94.7705 63.1137 92.5257 61.9271 88.0396 61.9271C83.5517 61.9271 81.3086 55.1032 81.3086 41.4553Z" stroke="#010000" stroke-width="0.00873362" stroke-miterlimit="10"/>
    <path fill-rule="evenodd" clip-rule="evenodd" d="M151.5 21.9993C149.704 21.3265 146.724 20.991 142.557 20.991C136.082 21.1185 131.915 20.8302 130.057 20.126H121.499L112.364 25.3143L106.883 34.8311V48.0946L113.903 58.0884C117.62 59.5004 117.941 60.1732 114.864 60.1085L108.229 63.953V76.5437H135.634L140.923 81.2514V87.3065C140.923 88.0107 142.204 88.3655 144.769 88.3655C147.332 88.3655 148.615 87.6927 148.615 86.3454V76.2554L138.615 69.1431H118.134L115.922 67.4113V63.5668L121.018 61.8386C124.865 61.6446 128.581 61.5502 132.172 61.5502L141.211 56.5507L146.596 47.2295V32.0421C144.031 29.7372 142.781 28.3899 142.846 28.0072C142.909 27.6227 144.64 28.0718 148.038 29.3527C152.14 29.3527 154.192 27.9425 154.192 25.1221C154.192 23.7136 153.294 22.6721 151.5 21.9993ZM121.788 54.3418L114.576 47.1334V34.8311L121.788 27.6227H131.788L138.903 34.9255V47.1334L131.788 54.3418H121.788Z" stroke="#010000" stroke-width="0.00873362" stroke-miterlimit="10"/>
    <path fill-rule="evenodd" clip-rule="evenodd" d="M183.246 1.85718C179.912 1.85718 178.246 3.39497 178.246 6.47055C178.246 9.61079 179.912 11.18 183.246 11.18C186.578 11.18 188.246 9.61079 188.246 6.47055C188.246 3.39497 186.578 1.85718 183.246 1.85718ZM187.092 41.4553C187.092 27.8721 183.246 21.0796 175.554 21.0796C167.861 21.0796 164.015 22.2661 164.015 24.6357C164.015 27.0717 166.578 28.288 171.707 28.288C176.835 28.288 179.4 33.8957 179.4 45.1076C179.4 56.3212 176.835 61.9271 171.707 61.9271C166.578 61.9271 164.015 63.1137 164.015 65.4833C164.015 67.9193 170.104 69.1355 182.284 69.1355C194.465 69.1355 200.554 67.9193 200.554 65.4833C200.554 63.1137 198.309 61.9271 193.823 61.9271C189.335 61.9271 187.092 55.1032 187.092 41.4553Z" stroke="#010000" stroke-width="0.00873362" stroke-miterlimit="10"/>
    <path fill-rule="evenodd" clip-rule="evenodd" d="M254.104 24.6499C254.104 22.2803 250.963 21.0937 244.681 21.0937C238.335 21.0937 235.162 19.0107 235.162 14.8464C235.162 10.6822 233.878 8.59741 231.315 8.59741C228.75 8.59741 227.469 10.6822 227.469 14.8464C227.469 19.0107 225.45 21.0937 221.411 21.0937C217.308 21.0937 215.257 22.2803 215.257 24.6499C215.257 27.0859 217.308 28.3021 221.411 28.3021C225.45 28.3021 227.469 32.372 227.469 40.5083V61.0763L236.219 69.1497H249.008C252.405 69.1497 254.104 67.9334 254.104 65.4974C254.104 63.1278 252.405 61.9413 249.008 61.9413H244.104C242.566 61.9413 241.123 61.9727 239.777 62.0374L235.162 57.9046V40.5083C235.162 32.372 238.335 28.3021 244.681 28.3021C250.963 28.3021 254.104 27.0859 254.104 24.6499Z" stroke="#010000" stroke-width="0.00873362" stroke-miterlimit="10"/>
    <path fill-rule="evenodd" clip-rule="evenodd" d="M300.731 28.1015C300.731 30.4729 300.619 31.6751 300.396 31.7066C300.17 31.7398 299.833 30.6336 299.385 28.3899L292.269 20.126H280.154L271.307 26.5637L266.5 38.0011V52.4179L271.211 63.7591L279.577 70.1025H291.5L299.193 60.2029C299.705 57.8351 300.09 56.327 300.347 55.6857C300.602 55.0461 300.731 55.2698 300.731 56.3584V61.5502L301.308 68.0841C301.436 68.7901 302.654 69.1413 304.962 69.1413C307.27 69.1413 308.424 61.1326 308.424 45.1133C308.424 29.0958 307.142 21.0853 304.578 21.0853C302.013 21.0853 300.731 23.4252 300.731 28.1015ZM280.827 62.7036L274.192 53.0924V37.0399L280.346 27.6227H293.52L300.731 37.136V52.804L293.52 62.7036H280.827Z" stroke="#010000" stroke-width="0.00873362" stroke-miterlimit="10"/>
    <path fill-rule="evenodd" clip-rule="evenodd" d="M350.843 61.9271C349.304 61.9271 347.862 61.9603 346.516 62.0233L341.9 57.8904V27.3268C341.9 10.3482 340.617 1.85718 338.054 1.85718H327.477C322.924 1.85718 320.65 3.04372 320.65 5.41332C320.65 7.84932 322.924 9.06557 327.477 9.06557C331.963 9.06557 334.208 16.3386 334.208 30.883V61.0621L342.958 69.1355H355.747C359.144 69.1355 360.843 67.9193 360.843 65.4833C360.843 63.1137 359.144 61.9271 355.747 61.9271H350.843Z" stroke="#010000" stroke-width="0.00873362" stroke-miterlimit="10"/>
    <path fill-rule="evenodd" clip-rule="evenodd" d="M436.596 6.64355C428.582 6.64355 424.576 17.0568 424.576 37.8799C424.576 58.7048 425.858 69.1163 428.423 69.1163C430.986 69.1163 432.269 65.4326 432.269 58.0634C432.269 50.696 434.993 47.0106 440.442 47.0106H454.481L463.808 42.205L469.289 33.0743V20.5798L463.808 11.4492L454.481 6.64355H436.596ZM440.442 39.61C434.993 39.61 432.269 35.3496 432.269 26.8271C432.269 18.3063 434.993 14.0442 440.442 14.0442H454.481L461.597 20.8681V32.5938L454.385 39.61H440.442Z" stroke="#010000" stroke-width="0.00873362" stroke-miterlimit="10"/>
    <path fill-rule="evenodd" clip-rule="evenodd" d="M506.024 70.1042L515.736 64.0491L521.121 52.8058V37.6184L515.64 26.2771L505.928 20.126H493.331L483.523 26.2771L478.042 37.6184V52.8058L483.523 64.0491L493.331 70.1042H506.024ZM493.331 62.7053L485.735 53.4768V36.9456L493.427 27.5266H505.928L513.428 36.9456V53.4768L505.928 62.7053H493.331Z" stroke="#010000" stroke-width="0.00873362" stroke-miterlimit="10"/>
    <path fill-rule="evenodd" clip-rule="evenodd" d="M553.428 1.85718C550.094 1.85718 548.428 3.39497 548.428 6.47055C548.428 9.61079 550.094 11.18 553.428 11.18C556.76 11.18 558.428 9.61079 558.428 6.47055C558.428 3.39497 556.76 1.85718 553.428 1.85718ZM557.274 41.4553C557.274 27.8721 553.428 21.0796 545.735 21.0796C538.043 21.0796 534.196 22.2661 534.196 24.6357C534.196 27.0717 536.759 28.288 541.889 28.288C547.017 28.288 549.581 33.8957 549.581 45.1076C549.581 56.3212 547.017 61.9271 541.889 61.9271C536.759 61.9271 534.196 63.1137 534.196 65.4833C534.196 67.9193 540.286 69.1355 552.466 69.1355C564.647 69.1355 570.736 67.9193 570.736 65.4833C570.736 63.1137 568.491 61.9271 564.005 61.9271C559.517 61.9271 557.274 55.1032 557.274 41.4553Z" stroke="#010000" stroke-width="0.00873362" stroke-miterlimit="10"/>
    <path fill-rule="evenodd" clip-rule="evenodd" d="M585.072 56.168L589.207 63.953L599.784 70.1042H616.515L625.458 62.7997V49.7267L617.189 43.289C614.175 42.7769 611.337 42.2649 608.678 41.7512C606.017 41.2391 603.534 40.7586 601.227 40.3095L595.842 36.9456V30.9866L600.842 27.7188H614.592C615.425 32.9735 616.996 35.5983 619.304 35.5983C621.547 35.5983 622.605 33.1955 622.477 28.3899L612.958 20.126H597.477L588.149 27.911V40.5017L597.573 47.3239C600.585 47.8377 603.405 48.3357 606.034 48.8145C608.662 49.2951 611.098 49.7267 613.342 50.1129L617.766 53.1885V59.5319L613.15 62.7997H601.323L593.438 57.6096C592.732 54.9814 591.226 53.6673 588.919 53.6673C586.546 53.6673 585.265 54.5026 585.072 56.168Z" stroke="#010000" stroke-width="0.00873362" stroke-miterlimit="10"/>
    <path fill-rule="evenodd" clip-rule="evenodd" d="M664.687 70.1042L674.399 64.0491L679.784 52.8058V37.6184L674.303 26.2771L664.591 20.126H651.995L642.187 26.2771L636.706 37.6184V52.8058L642.187 64.0491L651.995 70.1042H664.687ZM651.995 62.7053L644.398 53.4768V36.9456L652.091 27.5266H664.591L672.091 36.9456V53.4768L664.591 62.7053H651.995Z" stroke="#010000" stroke-width="0.00873362" stroke-miterlimit="10"/>
    <path fill-rule="evenodd" clip-rule="evenodd" d="M708.811 20.126L700.157 29.8333C699.003 33.5502 698.428 33.005 698.428 28.1994C698.428 23.4584 697.143 21.0871 694.58 21.0871C692.017 21.0871 690.734 29.0976 690.734 45.1151C690.734 61.1343 692.017 69.1431 694.58 69.1431C697.143 69.1431 698.428 64.4668 698.428 55.1107C698.428 45.884 698.874 39.5388 699.773 36.0806L706.6 27.8132H723.812V54.1496C723.812 64.1435 725.093 69.1431 727.658 69.1431C730.221 69.1431 731.504 63.8255 731.504 53.1885V30.9866L726.602 23.2959L719.485 20.126H708.811Z" stroke="#010000" stroke-width="0.00873362" stroke-miterlimit="10"/>
    <path fill-rule="evenodd" clip-rule="evenodd" d="M46.5343 24.3817L42.7107 20.1266C41.4555 18.7094 40.1792 17.3166 38.9694 15.8976L31.6982 7.47475L32.7577 7.98851C27.9708 8.15627 23.184 8.2716 18.3972 8.3747L11.2169 8.47082L9.42139 8.49179C9.24132 8.52674 9.11894 8.55819 8.96159 8.56343C8.81474 8.59663 8.6941 8.69974 8.5455 8.73294C7.98604 9.02302 7.39337 9.70978 6.89336 10.5538C5.9178 12.3258 5.32863 14.5626 4.82337 16.7854C4.36357 19.0431 4.01391 21.3533 3.77264 23.6949C3.26564 28.3712 3.10304 33.1226 2.94395 37.8758C2.85653 42.6307 2.73415 47.3926 2.99115 52.1301C3.31109 56.8116 3.64851 61.7186 5.74472 65.8461C6.31467 66.8177 7.01224 67.7229 7.93359 68.2192C8.17661 68.2996 8.40563 68.4307 8.65389 68.4848L9.42139 68.5722L11.2169 68.5547C13.6103 68.5443 16.0037 68.4586 18.3972 68.3817L32.7577 67.7649L31.7 68.2786C33.8888 65.2258 36.1791 62.2515 38.4956 59.3C40.8348 56.3643 43.1845 53.4372 45.5675 50.5364L45.258 51.4276C45.3489 46.989 45.4905 42.5381 45.6951 38.0453C45.9014 33.5508 46.1829 29.0108 46.5343 24.3817ZM46.8647 24.2681C47.2161 28.6718 47.4976 33.1681 47.7039 37.7063C47.9084 42.248 48.05 46.8317 48.141 51.4276L48.1497 51.8977L47.8315 52.3188C45.5675 55.314 43.2684 58.2812 40.9607 61.2415C38.6302 64.1825 36.2735 67.1043 33.8154 69.9457L33.3504 70.484L32.7577 70.4595L18.3972 69.8444C16.0037 69.7675 13.6103 69.6819 11.2169 69.6696L9.42139 69.6539L8.40913 69.5211C8.0787 69.4442 7.771 69.2782 7.45631 69.1541C6.24649 68.5163 5.43702 67.4521 4.79015 66.3844C3.59082 64.1808 2.92122 61.8164 2.37226 59.4538C1.84252 57.086 1.43517 54.6954 1.13971 52.2978C0.519059 47.5045 0.176394 42.6884 0.0697476 37.8758C-0.0701162 33.0632 -0.0124217 28.2367 0.359966 23.3821C0.536544 20.9566 0.82676 18.5206 1.2481 16.0759C1.70965 13.6277 2.3303 11.1689 3.64152 8.72071C4.35832 7.52368 5.27268 6.24102 6.84266 5.39873C7.25525 5.22573 7.66785 5.03176 8.10143 4.93564C8.53676 4.86924 9.00705 4.81157 9.42139 4.78711L11.2169 4.80983L18.3972 4.90419C23.184 5.00729 27.9708 5.12263 32.7577 5.29039L33.4587 5.31485L33.8171 5.8059C36.0812 8.89546 38.2823 12.0007 40.4887 15.0676C41.6006 16.5949 42.6478 18.1502 43.7178 19.681L46.8647 24.2681Z" fill="#7FBB48"/>
    <path fill-rule="evenodd" clip-rule="evenodd" d="M29.7679 61.8782C26.4566 62.1927 23.0107 62.4986 19.4844 62.703L14.1538 63.0333C13.6485 63.0158 13.4562 63.1696 12.4038 62.9424C12.0086 62.8236 11.666 62.5947 11.36 62.378C11.131 62.1543 10.8757 61.9096 10.6887 61.6685C9.98237 60.7109 9.67467 59.8057 9.34074 58.9005C8.25505 55.3076 7.91763 51.8179 7.64315 48.3089C7.37041 44.8087 7.34069 41.319 7.35992 37.8397C7.4351 34.3587 7.56622 30.8742 7.82846 27.3792C8.12917 23.8808 8.45785 20.384 9.60823 16.8419C9.93516 15.9594 10.2918 15.0594 10.9876 14.163C11.2079 13.9393 11.395 13.7156 11.6642 13.5164C11.9894 13.3416 12.2517 13.111 12.666 13.069C12.8601 13.0323 13.0559 13.0079 13.2464 12.9939L13.5699 13.0114L14.2185 13.0463L19.4074 13.3015C22.8656 13.4867 26.3255 13.5321 29.7836 13.5164L30.0563 13.5146L30.2207 13.7401C31.7941 15.8895 33.4026 18.0127 35.0949 20.0765L40.1405 26.2888L40.3486 26.5457L40.3783 27.028C40.4867 28.7982 40.5846 30.5684 40.623 32.3386C40.6912 34.1088 40.6685 35.879 40.6807 37.6475C40.6388 41.1879 40.5811 44.7283 40.4465 48.2687L40.4272 48.7388L40.2052 49.0341C38.4866 51.2971 36.7506 53.5304 34.9988 55.6798C34.1369 56.7703 33.2365 57.7978 32.3693 58.8393C31.5022 59.8791 30.6385 60.9048 29.7679 61.8782ZM29.607 61.5689C30.3063 60.2985 31.0144 59.0822 31.7172 57.8799C32.42 56.6794 33.0914 55.4649 33.7994 54.3133C35.1893 51.9769 36.595 49.7261 38.0181 47.5033L37.7768 48.2687C37.6422 44.7283 37.5845 41.1879 37.5425 37.6475C37.5548 35.879 37.5321 34.1088 37.6002 32.3386C37.6387 30.5684 37.7349 28.7982 37.845 27.028L38.0828 27.7654L33.8012 21.0044C32.3851 18.7431 30.8833 16.543 29.3483 14.3657L29.7836 14.5894C26.3255 14.5736 22.8656 14.6191 19.4074 14.8043L14.2185 15.0594L13.5699 15.0944L13.2464 15.1119C13.2237 15.1381 13.208 15.1538 13.1887 15.159C13.1503 15.1258 13.0978 15.2621 13.0384 15.2709C12.972 15.3373 12.8985 15.4718 12.8181 15.554C12.5104 16.073 12.2639 16.8192 12.0856 17.5828C11.388 20.7196 11.2499 24.1778 11.0873 27.5627C10.9719 30.9738 10.9859 34.4059 11.0541 37.8397C11.0786 41.2735 11.1642 44.7004 11.2639 48.1062C11.4404 51.4824 11.5716 54.9459 12.2919 58.0424C12.4824 58.7764 12.7115 59.5401 13.0017 60.0101C13.0716 60.115 13.1346 60.1709 13.1887 60.2705C13.2342 60.288 13.2517 60.3352 13.2587 60.3474C13.0506 60.3526 13.7307 60.4086 14.0891 60.4138L19.1365 60.7441C22.5264 60.9485 26.0003 61.2543 29.607 61.5689Z" fill="#7FBB48"/>
    <path fill-rule="evenodd" clip-rule="evenodd" d="M88.0567 62.1245C87.1336 62.1245 86.214 61.8117 85.4762 61.2577C84.7035 60.723 84.2209 59.9244 83.7192 59.1747C82.8066 57.602 82.2995 55.8615 81.817 54.135C80.9394 50.654 80.5005 47.0856 80.1981 43.526C80.0565 41.7243 79.9306 39.9978 79.7645 38.2887C79.5862 36.5779 79.3362 34.8899 79.0093 33.2455C78.3204 30.0021 77.2068 26.7675 75.0581 24.8785C74.0109 23.9331 72.7538 23.325 71.315 23.0995C69.9636 22.8898 68.1034 22.9772 66.4372 23.0192C64.7519 23.0873 63.063 23.2551 61.6189 23.657C60.9126 23.8475 60.271 24.1708 60.0682 24.4067C59.9441 24.5237 59.9406 24.5412 59.9283 24.6216C59.8986 24.7125 59.9213 25.0165 59.9808 25.1231C60.0647 25.7155 61.5752 26.3866 63.1312 26.6015C63.9162 26.7326 64.7431 26.8095 65.5841 26.8409C65.946 26.8479 66.5893 26.9126 67.0946 26.9702C67.6331 27.103 68.175 27.2044 68.6803 27.456C70.808 28.3263 72.0493 30.2555 72.7836 31.9995C73.5056 33.7977 73.8605 35.6256 74.0633 37.4325C74.4847 41.0515 74.3535 44.6164 74.1507 48.1743C74.0214 49.9532 73.8623 51.7374 73.5109 53.5041C73.1594 55.2621 72.7294 57.041 71.857 58.6924C71.0562 60.3333 69.5947 61.9148 67.6348 62.4478C67.1558 62.6051 66.668 62.6767 66.1732 62.7169L64.8568 62.8182C64.0036 62.8864 63.1662 63.0122 62.369 63.1975C61.5805 63.3862 60.82 63.657 60.2675 64.031C59.715 64.4294 59.4895 64.8209 59.486 65.3224C59.1993 65.6719 60.8969 66.439 62.4756 66.6767C65.7204 67.2883 69.2398 67.4002 72.7084 67.5732C76.198 67.6745 79.7103 67.8563 83.2052 67.9052C84.9535 67.9279 86.6983 67.8965 88.4273 67.7602C90.1372 67.6064 91.9047 67.4107 93.382 66.7274C95.0429 66.1857 94.5656 63.879 93.0953 63.1118C91.618 62.2748 89.7858 62.1717 88.0567 62.1245ZM88.0567 61.775C89.8225 61.7872 91.6582 61.8589 93.3313 62.6959C94.153 63.1031 94.9013 63.9087 95.0621 64.896C95.1425 65.3329 95.202 65.9393 94.8995 66.4198C94.6478 66.9109 94.2439 67.2324 93.8471 67.5138C92.2002 68.5221 90.4064 68.9065 88.6459 69.2875C86.8766 69.6404 85.0968 69.9008 83.3188 70.0948C79.7593 70.5055 76.2032 70.6924 72.6315 70.647C69.0527 70.6016 65.4704 70.4093 61.806 69.5076C60.8846 69.277 59.9685 68.9624 59.0105 68.4207C58.5419 68.1586 58.0349 67.7986 57.5909 67.2272C57.3828 66.9476 57.1765 66.5561 57.0908 66.1664C57.0541 65.9602 57.0279 65.7505 57.0139 65.5443C57.0174 65.3713 57.0384 65.2298 57.0541 65.0708C57.138 64.4522 57.3793 63.8091 57.7709 63.2971C58.166 62.792 58.6468 62.4251 59.1294 62.149C60.1049 61.6282 61.0752 61.422 62.0158 61.2857C62.9564 61.1581 63.8812 61.1144 64.7921 61.1284C65.7467 61.1232 66.5421 61.235 67.2782 61.0568C68.7922 60.7632 70.0685 59.6151 70.8622 58.149C72.4479 55.1712 72.8622 51.5766 72.9636 48.1184C73.0703 44.6286 72.7993 41.1004 72.1734 37.733C71.8342 36.0572 71.343 34.4198 70.6157 32.9956C69.8552 31.6098 68.8744 30.4233 67.6331 30.0248C67.3394 29.885 66.9967 29.8641 66.6768 29.7889C66.3026 29.7872 66.0666 29.7522 65.5456 29.768C64.6208 29.7872 63.6802 29.7592 62.7169 29.6561C61.7518 29.553 60.7605 29.3695 59.7273 28.9466C58.7342 28.5482 57.5122 27.7514 56.937 26.3674C56.6503 25.6631 56.5489 25.0637 56.6118 24.2791C56.6625 23.4787 57.0699 22.6539 57.5611 22.1419C58.5629 21.0655 59.6224 20.6863 60.5857 20.349C62.5298 19.7409 64.3795 19.5294 66.2152 19.3826C68.0684 19.269 69.7625 19.1275 71.9094 19.4211C73.9567 19.7269 76.0371 20.667 77.5756 22.1279C79.1264 23.5853 80.1579 25.3783 80.8922 27.1729C81.6492 28.9764 82.0373 30.8235 82.324 32.6583C82.8922 36.3053 82.7121 40.017 82.4989 43.484C82.3153 46.9807 82.3275 50.4845 82.7681 53.9445C82.9919 55.671 83.4377 57.3696 84.1737 58.9266C84.9272 60.4521 86.3066 61.7628 88.0567 61.775Z" fill="#7FBB48"/>
    <path fill-rule="evenodd" clip-rule="evenodd" d="M82.3001 6.48053C82.3421 5.18914 81.3858 3.92919 80.3665 3.82085C79.884 3.71425 79.4364 3.74221 78.9644 3.72474C78.4941 3.70377 77.9801 3.70726 77.4416 3.73522C76.3611 3.79638 75.4468 3.86978 74.8681 4.21753C74.3191 4.53557 73.7614 5.35864 73.4328 6.54869C73.0953 7.68456 73.2544 9.03712 74.2037 9.67844C75.1566 10.3372 76.4223 9.95455 77.5063 9.73262C78.6549 9.47574 79.4819 9.43205 80.4259 9.22934C81.4242 9.04585 82.3788 7.77368 82.3001 6.48053ZM82.6498 6.48053C82.6358 7.14808 82.6585 7.81038 82.6271 8.55131C82.5746 9.27128 82.4347 10.1328 81.9225 10.879C81.4277 11.6234 80.6532 12.1896 79.8595 12.4465C79.064 12.7138 78.2616 12.754 77.5185 12.6474C76.0255 12.4168 74.5272 11.6059 73.4642 10.5295C72.3628 9.44952 71.861 7.9991 71.5184 6.56791C71.3698 5.84445 71.2456 5.04934 71.3995 4.19656C71.5393 3.35252 71.9712 2.44382 72.6635 1.75531C74.0831 0.346833 75.9311 -0.0358676 77.4276 0.00257728C78.1951 0.0357796 78.9941 0.144124 79.7931 0.441198C80.585 0.738272 81.3613 1.31145 81.877 2.05413C82.405 2.80206 82.5851 3.66532 82.641 4.39752C82.6812 5.14545 82.655 5.81299 82.6498 6.48053Z" fill="#7FBB48"/>
    <path fill-rule="evenodd" clip-rule="evenodd" d="M154.026 25.0978C154.047 24.0493 153.368 23.1458 152.456 22.6461C151.55 22.1183 150.498 21.8597 149.449 21.671C147.333 21.3075 145.158 21.3022 143.006 21.3215C140.849 21.3756 138.663 21.5119 136.478 21.5032C134.275 21.463 132.121 21.5224 129.782 20.8496L130.065 20.9021L121.509 21.2393L122.072 21.0908C119.096 22.9466 116.123 24.8007 113.122 26.6094L113.687 26.0467C111.972 29.283 110.171 32.4704 108.409 35.6788L108.643 34.8068L108.753 48.0685L108.416 47.0008L115.434 56.9965L114.572 56.3272C115.039 56.5072 115.505 56.6907 115.983 56.8986C116.47 57.1136 116.934 57.3163 117.537 57.7042C117.672 57.7863 117.874 57.9349 118.091 58.1393C118.159 58.183 118.425 58.5063 118.537 58.7108C118.579 58.7579 118.738 59.1109 118.776 59.4325C118.817 59.768 118.81 60.0581 118.686 60.3779C118.575 60.6924 118.348 61.0157 118.142 61.2062C118.028 61.3005 117.906 61.3879 117.776 61.4666C117.462 61.6518 117.35 61.6658 117.215 61.7112C116.897 61.8126 116.759 61.8161 116.558 61.8493C115.869 61.9296 115.369 61.9104 114.834 61.9034L115.785 61.6588L109.112 65.4351L109.981 63.9288L109.853 76.5194L108.238 74.9048L121.941 75.1179C126.507 75.1826 131.076 75.3137 135.644 75.4395L136.083 75.4517L136.363 75.7121L141.529 80.5579L141.838 80.848L141.83 81.2272L141.754 84.3814L141.718 85.9594L141.7 86.7475C141.679 86.9607 141.716 87.4482 141.658 87.1861C141.538 87.1267 142.067 87.4325 142.499 87.4779C142.961 87.5723 143.464 87.6195 143.969 87.6509C144.992 87.7156 146.013 87.7034 146.893 87.4622C147.323 87.3381 147.683 87.1337 147.851 86.882C147.935 86.7545 147.985 86.6077 148.003 86.4312C148.02 86.2704 148.012 85.9332 148.017 85.6938L148.045 82.5395L148.099 76.2311L148.319 76.6592L138.272 69.6134L138.623 69.7252L128.382 69.7951C124.969 69.8196 121.555 69.9227 118.142 69.9821L117.86 69.9873L117.609 69.7986L115.362 68.114L115.018 67.8554L115.007 67.3871L114.928 63.5426L114.913 62.8418L115.609 62.5937C117.299 61.9908 118.978 61.3565 120.656 60.7204L120.784 60.6714L120.969 60.661C124.7 60.432 128.438 60.2363 132.181 59.9532L131.42 60.1489L131.431 60.1437C134.557 58.6898 137.63 57.1415 140.718 55.6194L140.323 56.0091C142.279 52.9947 144.162 49.9384 146.06 46.8907L145.975 47.2035C146.104 42.1428 146.246 37.0803 146.296 32.0178L146.398 32.2468C145.721 31.6212 145.05 30.9868 144.396 30.3315C144.069 30.003 143.747 29.6692 143.438 29.318C143.143 28.9248 142.793 28.7029 142.622 28.0248C142.588 27.9287 142.73 27.6981 142.835 27.6806C142.938 27.6351 143.022 27.6247 143.092 27.6229C143.235 27.6159 143.358 27.6334 143.48 27.6509C143.723 27.6858 143.95 27.7452 144.179 27.8012C144.632 27.9182 145.074 28.0563 145.513 28.2013C146.393 28.4914 147.258 28.8095 148.12 29.138L148.048 29.124C149.435 29.1135 150.867 28.9964 152.092 28.3848C152.702 28.086 153.223 27.6264 153.552 27.0445C153.886 26.4661 154.026 25.7811 154.026 25.0978ZM154.375 25.0978C154.381 25.823 154.237 26.5727 153.868 27.2245C153.506 27.878 152.921 28.3953 152.265 28.7221C150.943 29.3896 149.468 29.5085 148.048 29.5312L148.012 29.5329L147.975 29.5189C147.115 29.1991 146.251 28.8881 145.382 28.6067C144.947 28.4669 144.51 28.3324 144.073 28.224C143.854 28.1699 143.632 28.1227 143.421 28.0965C143.23 28.0231 142.92 28.1786 143.092 28.0196C143.153 28.2398 143.529 28.6784 143.812 28.979C144.122 29.3092 144.447 29.629 144.775 29.9436C145.438 30.5727 146.122 31.1843 146.81 31.7889L146.912 31.8763L146.914 32.0178C146.963 37.0803 147.104 42.1428 147.234 47.2035L147.237 47.3538L147.15 47.5181C145.457 50.6863 143.751 53.844 142.118 57.0454L142.01 57.2568L141.721 57.4333C138.791 59.2403 135.847 61.0209 132.953 62.8943L132.943 62.9012L132.579 63.1074L132.181 63.0987C128.488 63.0061 124.791 63.0026 121.086 62.9676L121.399 62.9065C119.679 63.4237 117.96 63.941 116.254 64.4915L116.934 63.5426L116.855 67.3871L116.5 66.6601L118.675 68.4373L118.142 68.2521C121.555 68.3132 124.969 68.4163 128.382 68.4408L138.623 68.5107L138.821 68.5124L138.975 68.6225L148.929 75.803L149.148 75.9602L149.15 76.2311L149.204 82.5395L149.232 85.6938C149.228 85.9786 149.248 86.1691 149.227 86.5326C149.202 86.8786 149.094 87.2473 148.889 87.5618C148.466 88.1979 147.824 88.495 147.262 88.675C146.109 89.0175 144.994 88.9965 143.921 89C143.375 88.9913 142.828 88.9686 142.253 88.8812C141.966 88.8375 141.669 88.7763 141.352 88.6662C141.05 88.5422 140.644 88.4041 140.323 87.8694C140.059 87.1145 140.218 87.0533 140.163 86.7475L140.144 85.9594L140.107 84.3814L140.034 81.2272L140.333 81.8982L134.926 77.325L135.644 77.5994C131.076 77.7234 126.507 77.8563 121.941 77.9192L108.238 78.1324L106.64 78.1586L106.622 76.5194L106.495 63.9288L106.484 62.9414L107.364 62.4207L113.958 58.508L114.374 58.2634H114.911C115.332 58.2652 115.792 58.2547 116.054 58.2145C116.089 58.2075 116.191 58.19 116.098 58.2075C116.079 58.2197 116.084 58.2057 115.867 58.3193C115.789 58.3665 115.717 58.4242 115.656 58.4871C115.483 58.6304 115.285 58.8995 115.205 59.1634C115.13 59.4342 115.088 59.6614 115.124 59.9392C115.149 60.2014 115.306 60.4932 115.306 60.4932C115.339 60.6103 115.556 60.8182 115.523 60.792C115.561 60.8357 115.579 60.8357 115.505 60.7955C115.299 60.6714 114.89 60.474 114.502 60.3062C114.102 60.1332 113.678 59.9672 113.25 59.8029L112.715 59.5967L112.388 59.1319L105.369 49.138L105.026 48.6505L105.031 48.0685L105.142 34.8068L105.147 34.3123L105.376 33.9331C107.267 30.7998 109.119 27.6421 111.058 24.5334L111.301 24.1437L111.622 23.9724C114.713 22.321 117.829 20.7168 120.946 19.1109L121.254 18.9536L121.509 18.9623L130.065 19.2996L130.228 19.3066L130.35 19.352C132.151 20.0318 134.405 20.2048 136.518 20.3813C138.67 20.5351 140.824 20.6067 143.006 20.6155C145.188 20.6749 147.37 20.8287 149.531 21.2201C150.604 21.4333 151.695 21.7129 152.662 22.3001C153.638 22.84 154.428 23.9235 154.375 25.0978Z" fill="#7FBB48"/>
    <path fill-rule="evenodd" clip-rule="evenodd" d="M131.852 54.5234C128.705 55.0266 125.289 55.4373 121.784 55.6924L121.333 55.7256L120.841 55.3028C118.259 53.0799 115.726 50.8047 113.275 48.4508L112.768 47.965L112.738 47.1542C112.698 46.1284 112.693 45.1027 112.705 44.0786C112.719 43.0528 112.691 42.0271 112.74 41.003L112.944 34.8519L112.969 34.1319L113.422 33.702C115.883 31.3569 118.483 29.1481 121.111 26.9707L121.473 26.6719L121.784 26.6928C123.45 26.8029 125.118 26.9864 126.784 27.0388C128.452 27.1122 130.118 27.1332 131.784 27.0878L132.006 27.0808L132.183 27.2555C134.601 29.6461 137.326 31.7344 139.887 33.9851L140.225 34.2804L140.279 34.9462C140.445 36.9821 140.499 39.0161 140.454 41.0502C140.422 43.0843 140.349 45.1184 140.228 47.1542L140.19 47.7781L139.845 48.0856C137.199 50.4482 134.497 52.7042 131.852 54.5234ZM131.718 54.2001C133.814 51.2154 135.856 48.664 137.954 46.221L137.571 47.1542C137.449 45.1184 137.375 43.0843 137.345 41.0502C137.3 39.0161 137.354 36.9821 137.518 34.9462L137.91 35.9091C135.73 33.2896 133.712 30.5094 131.387 28.0297L131.784 28.1974C130.118 28.152 128.452 28.173 126.784 28.2464C125.118 28.2988 123.45 28.4823 121.784 28.5924L122.455 28.3145C120.277 30.9427 118.067 33.5395 115.722 36L116.198 34.8519L116.403 41.003C116.451 42.0271 116.425 43.0528 116.439 44.0786C116.45 45.1027 116.444 46.1284 116.406 47.1542L115.869 45.8576C118.224 48.3075 120.501 50.8397 122.724 53.4207L121.784 53.031C124.945 53.2879 128.197 53.6968 131.718 54.2001Z" fill="#7FBB48"/>
    <path fill-rule="evenodd" clip-rule="evenodd" d="M193.817 62.1245C192.894 62.1245 191.975 61.8134 191.237 61.2577C190.464 60.723 189.982 59.9262 189.478 59.1765C188.566 57.602 188.059 55.8615 187.576 54.1367C186.698 50.6557 186.26 47.0856 185.957 43.5277C185.816 41.726 185.69 39.9978 185.524 38.2905C185.345 36.5779 185.095 34.8916 184.768 33.2455C184.079 30.0021 182.968 26.7693 180.817 24.8785C179.77 23.9331 178.515 23.325 177.076 23.0995C175.724 22.8898 173.862 22.9772 172.196 23.0192C170.513 23.0873 168.824 23.2551 167.378 23.6552C166.673 23.8475 166.032 24.1708 165.827 24.4049C165.703 24.5237 165.701 24.5412 165.687 24.6216C165.658 24.7107 165.68 25.0165 165.74 25.1231C165.824 25.7155 167.334 26.3866 168.888 26.6015C169.675 26.7326 170.5 26.8095 171.341 26.8409C171.703 26.8479 172.348 26.9126 172.854 26.9685C173.39 27.103 173.932 27.2044 174.438 27.456C176.565 28.3245 177.808 30.2538 178.544 31.9978C179.265 33.7959 179.62 35.6238 179.824 37.4307C180.245 41.0498 180.114 44.6146 179.911 48.1743C179.782 49.9515 179.623 51.7357 179.272 53.5024C178.92 55.2621 178.488 57.0393 177.618 58.6907C176.817 60.3316 175.355 61.913 173.396 62.4478C172.917 62.6033 172.429 62.6767 171.936 62.7169L170.618 62.8165C169.764 62.8864 168.927 63.0122 168.13 63.1975C167.341 63.3844 166.581 63.657 166.028 64.031C165.476 64.4277 165.249 64.8191 165.245 65.3207C164.957 65.6719 166.654 66.4373 168.233 66.6767C171.478 67.2883 174.997 67.4002 178.466 67.5732C181.955 67.6745 185.468 67.8563 188.962 67.9052C190.711 67.9279 192.457 67.8965 194.185 67.7602C195.894 67.6064 197.662 67.4107 199.139 66.7274C200.802 66.1874 200.325 63.8807 198.856 63.1118C197.379 62.2748 195.547 62.1717 193.817 62.1245ZM193.817 61.775C195.583 61.7872 197.419 61.8589 199.092 62.6959C199.914 63.1048 200.66 63.9104 200.821 64.8978C200.902 65.3346 200.961 65.941 200.657 66.4216C200.407 66.9126 200.001 67.2342 199.604 67.5138C197.957 68.5221 196.164 68.9065 194.403 69.2875C192.634 69.6404 190.856 69.9008 189.076 70.0948C185.517 70.5055 181.961 70.6924 178.389 70.647C174.81 70.6016 171.228 70.4093 167.563 69.5076C166.642 69.2752 165.726 68.9607 164.768 68.419C164.299 68.1568 163.792 67.7968 163.348 67.2254C163.14 66.9423 162.934 66.5526 162.85 66.1629C162.811 65.9567 162.787 65.747 162.773 65.5408C162.776 65.3696 162.797 65.2263 162.813 65.069C162.899 64.4487 163.14 63.8073 163.532 63.2936C163.927 62.7903 164.408 62.4233 164.892 62.149C165.866 61.6282 166.836 61.422 167.777 61.284C168.717 61.1581 169.642 61.1144 170.553 61.1267C171.507 61.1232 172.303 61.235 173.039 61.0568C174.553 60.7615 175.829 59.6134 176.623 58.1472C178.209 55.1695 178.623 51.5766 178.724 48.1166C178.831 44.6269 178.56 41.0987 177.934 37.7313C177.595 36.0554 177.104 34.4198 176.375 32.9938C175.614 31.6098 174.633 30.4215 173.392 30.0248C173.097 29.885 172.756 29.8641 172.436 29.7889C172.062 29.7872 171.826 29.7522 171.305 29.768C170.38 29.7872 169.439 29.7592 168.474 29.6561C167.509 29.553 166.52 29.3695 165.486 28.9449C164.493 28.5482 163.269 27.7514 162.694 26.3656C162.409 25.6614 162.306 25.062 162.373 24.2774C162.423 23.477 162.831 22.6522 163.322 22.1419C164.324 21.0655 165.383 20.6863 166.345 20.349C168.291 19.7409 170.14 19.5294 171.976 19.3826C173.829 19.269 175.523 19.1275 177.668 19.4211C179.717 19.7269 181.796 20.667 183.336 22.1297C184.885 23.5853 185.919 25.3783 186.651 27.1729C187.408 28.9764 187.798 30.8235 188.083 32.6583C188.651 36.3053 188.471 40.017 188.258 43.4858C188.074 46.9807 188.087 50.4862 188.529 53.9462C188.751 55.671 189.197 57.3713 189.933 58.9283C190.688 60.4521 192.067 61.7628 193.817 61.775Z" fill="#7FBB48"/>
    <path fill-rule="evenodd" clip-rule="evenodd" d="M188.058 6.48053C188.1 5.18914 187.143 3.93094 186.124 3.82085C185.643 3.71425 185.194 3.74221 184.722 3.72474C184.252 3.70377 183.738 3.70726 183.201 3.73522C182.119 3.79638 181.206 3.86978 180.627 4.21753C180.078 4.53557 179.521 5.35864 179.192 6.54869C178.855 7.68456 179.012 9.03712 179.961 9.67844C180.916 10.3372 182.182 9.95455 183.265 9.73262C184.412 9.47574 185.239 9.43205 186.183 9.22934C187.182 9.04585 188.136 7.77368 188.058 6.48053ZM188.407 6.48053C188.393 7.14808 188.416 7.81037 188.385 8.54956C188.332 9.27128 188.192 10.1328 187.682 10.879C187.185 11.6217 186.412 12.1896 185.619 12.4465C184.823 12.7138 184.021 12.754 183.278 12.6474C181.785 12.4168 180.285 11.6059 179.222 10.5295C178.122 9.44952 177.62 7.9991 177.278 6.56791C177.129 5.84445 177.005 5.04934 177.159 4.19656C177.299 3.35252 177.73 2.44557 178.423 1.75531C179.841 0.346833 181.69 -0.0358676 183.187 0.00257728C183.954 0.0357796 184.752 0.145872 185.551 0.441198C186.342 0.738272 187.119 1.31145 187.634 2.05588C188.164 2.80206 188.343 3.66532 188.398 4.39752C188.439 5.14545 188.412 5.81299 188.407 6.48053Z" fill="#7FBB48"/>
    <path fill-rule="evenodd" clip-rule="evenodd" d="M244.682 28.141C247.013 28.0746 249.424 27.9995 251.57 27.1677C252.604 26.7483 253.602 26.0301 253.688 25.0113C253.826 23.9541 253.102 23.1712 252.116 22.771C250.104 21.9776 247.71 21.9741 245.423 22.0388C243.084 22.1576 240.514 22.231 237.953 21.2542C236.677 20.7771 235.383 19.8579 234.584 18.5141C233.734 17.2472 233.568 15.5172 233.537 14.411C233.484 13.345 233.311 12.3 232.974 11.5399C232.596 10.7535 232.282 10.5211 231.717 10.4197C231.418 10.3726 231 10.3953 230.757 10.4757C230.5 10.5578 230.339 10.6696 230.163 10.8758C229.806 11.2882 229.512 12.1847 229.42 13.1755C229.358 13.6666 229.348 14.1943 229.346 14.7256C229.341 15.3267 229.313 16.0676 229.198 16.7614C228.986 18.1611 228.413 19.7478 227.183 20.9484C225.96 22.1524 224.346 22.6906 222.944 22.8654C221.402 23.0331 220.432 22.8881 219.439 23.0523C218.461 23.1642 217.594 23.4927 217.302 23.8265C217.15 23.989 217.063 24.1393 217.014 24.4311C216.97 24.7387 217.003 25.1126 217.089 25.3049C217.209 25.698 217.744 26.1105 218.668 26.3638C219.112 26.4932 219.619 26.5631 220.131 26.6225L221.865 26.7238C222.622 26.7518 223.411 26.9842 224.145 27.3022C224.853 27.6762 225.535 28.141 226.023 28.7264C227.047 29.8745 227.591 31.1817 227.958 32.4329C228.67 34.958 228.781 37.4254 228.764 39.851L228.512 46.9423C228.353 51.6588 228.164 56.3735 228.079 61.09L227.883 60.6443C230.748 63.3914 233.649 66.0983 236.596 68.7562L236.22 68.6094C239.24 68.5937 242.257 68.508 245.277 68.3962C246.757 68.3246 248.355 68.3001 249.742 68.1883C251.118 68.0624 252.382 67.5574 252.71 66.7239C252.911 66.3307 252.941 65.7295 252.871 65.1843C252.782 64.6513 252.578 64.3053 252.252 64.0467C251.57 63.4997 250.203 63.3809 248.833 63.4159L239.853 63.6186L239.193 63.6326L238.731 63.2201C237.192 61.8414 235.687 60.4277 234.164 59.0332L233.652 58.5631L233.666 57.9183C233.799 52.0712 234.189 46.231 234.467 40.3787C234.642 37.415 235.185 34.3341 236.878 31.7915C237.731 30.5351 238.951 29.553 240.32 28.9414C241.696 28.328 243.208 28.1375 244.682 28.141ZM244.682 28.4905C243.242 28.5098 241.787 28.7229 240.492 29.3276C239.187 29.9077 238.124 30.9265 237.394 32.1271C235.9 34.5683 235.785 37.5687 235.866 40.3857C236.13 46.2241 236.53 52.0747 236.658 57.9183L236.161 56.8051C237.715 58.1647 239.287 59.505 240.825 60.8803L239.705 60.4836L244.305 60.4049L248.833 60.4941C250.418 60.5535 252.308 60.6548 253.99 62.1C254.808 62.8497 255.244 63.9733 255.294 64.9414C255.333 65.8851 255.237 66.8619 254.698 67.7968C254.182 68.7317 253.254 69.3538 252.401 69.6527C251.532 69.962 250.682 70.0581 249.864 70.0825C248.235 70.0808 246.812 69.9777 245.277 69.9305C242.257 69.8187 239.24 69.733 236.22 69.7173L235.998 69.7156L235.845 69.5705C232.96 66.8462 230.026 64.1708 227.059 61.5356L226.869 61.3661L226.864 61.09C226.776 56.3735 226.589 51.6588 226.43 46.9423L226.155 39.8877C226.066 37.6089 225.816 35.3197 225.14 33.3276C224.804 32.3403 224.33 31.449 223.738 30.8671C223.157 30.2677 222.502 29.9776 221.659 29.9532C221.496 29.9375 221.159 29.9357 220.832 29.9357C220.514 29.9392 220.183 29.9095 219.858 29.8973C219.197 29.8396 218.531 29.768 217.832 29.5932C217.138 29.415 216.409 29.1633 215.69 28.6985C214.975 28.2441 214.285 27.5049 213.917 26.6242C213.542 25.7278 213.472 24.8872 213.552 24.0274C213.634 23.1467 214.035 22.1629 214.681 21.4569C216.022 20.0344 217.587 19.7024 218.905 19.4595C220.246 19.2271 221.655 19.297 222.456 19.1817C223.376 19.0611 224.103 18.7553 224.57 18.2887C225.045 17.8274 225.363 17.1021 225.502 16.1812C225.577 15.7111 225.591 15.2708 225.601 14.6941C225.619 14.0458 225.647 13.394 225.745 12.7159C225.94 11.3931 226.252 9.88676 227.44 8.48702C228.033 7.80375 228.909 7.25679 229.79 7.02961C230.682 6.79895 231.474 6.79021 232.334 6.93525C233.192 7.08204 234.11 7.50843 234.78 8.14976C235.458 8.78759 235.869 9.5495 236.14 10.2607C236.668 11.7007 236.759 13.041 236.769 14.3236C236.776 15.0436 236.741 15.3686 236.808 15.8457C236.86 16.2861 236.972 16.6915 237.159 17.055C237.509 17.7907 238.166 18.3953 239.044 18.8601C242.663 20.8575 248.009 19.456 252.621 21.7697C253.186 22.0807 253.738 22.5159 254.111 23.1205C254.494 23.7286 254.581 24.4748 254.453 25.1319C254.34 25.8116 253.931 26.4233 253.424 26.8217C252.917 27.2306 252.343 27.4857 251.768 27.6937C249.438 28.4224 247.046 28.4958 244.682 28.4905Z" fill="#7FBB48"/>
    <path fill-rule="evenodd" clip-rule="evenodd" d="M304.579 21.2613C303.253 21.2281 302.145 22.1385 301.691 23.3583C301.19 24.5623 301.087 25.9096 301.068 27.2272C301.063 28.5588 301.177 29.8904 301.059 31.3286C301.047 31.4229 301.033 31.5208 301.003 31.6344C300.986 31.6938 300.974 31.7497 300.932 31.8353C300.918 31.8685 300.897 31.9157 300.839 31.9856C300.808 32.0311 300.729 32.1202 300.558 32.1813C300.432 32.239 300.218 32.2023 300.121 32.1499C300.052 32.1149 299.954 32.0415 299.928 32.0083C299.857 31.9332 299.808 31.8633 299.78 31.8144C299.711 31.7025 299.668 31.6134 299.628 31.5225C299.468 31.166 299.367 30.841 299.259 30.5055C299.052 29.8432 298.881 29.1844 298.711 28.5256L298.865 28.8401L291.288 20.9712L292.271 21.4203C288.232 21.6545 284.194 21.7785 280.155 21.8712L281.183 21.5374L272.41 28.0782L273.034 27.2901C271.415 31.0944 269.845 34.9214 268.163 38.6995L268.305 38.0022L268.095 52.419L267.975 51.8074L272.412 63.2622L271.997 62.7257L280.124 69.3836L279.578 69.2002C283.552 69.3347 287.526 69.4833 291.5 69.5339L291.05 69.7541C293.659 66.4881 296.224 63.1888 298.724 59.8389L298.612 60.0783L299.262 57.2456L299.589 55.8249C299.657 55.5662 299.629 55.4107 299.876 54.9948C299.926 54.9302 299.958 54.8603 300.135 54.7292C300.162 54.6908 300.468 54.5597 300.645 54.5929C300.883 54.6051 301.133 54.7939 301.161 54.8463C301.434 55.208 301.365 55.2534 301.416 55.3688C301.458 55.5593 301.468 55.6886 301.484 55.8266L301.732 61.5496L301.729 61.4623L302.572 67.9734L302.556 67.8581C302.505 67.5593 302.33 67.4929 302.446 67.5418C302.526 67.5715 302.717 67.6222 302.923 67.6536C303.346 67.72 303.858 67.7375 304.374 67.7305L304.764 67.7218L304.962 67.7148C304.935 67.6973 304.899 67.6886 304.865 67.6938C304.832 67.6956 304.802 67.713 304.78 67.7375C304.768 67.734 304.755 67.72 304.755 67.72C304.743 67.7078 304.741 67.7672 304.781 67.6798C304.811 67.6257 304.846 67.5767 304.888 67.5313L305.011 67.2709C305.101 67.1119 305.175 66.8847 305.248 66.6593C305.822 64.8105 306.084 62.5545 306.301 60.3876C306.715 55.9944 306.916 51.5138 307.184 47.0315C307.444 42.5457 307.654 38.0512 307.596 33.5619C307.588 31.3163 307.47 29.0691 307.157 26.8532C307.009 25.7453 306.783 24.6462 306.442 23.5924C306.094 22.6051 305.596 21.3696 304.579 21.2613ZM304.579 20.9118C305.269 20.9205 305.738 21.4325 306.08 21.8921C306.4 22.3884 306.628 22.9214 306.827 23.4596C307.201 24.5431 307.428 25.658 307.666 26.7676C308.098 28.9957 308.359 31.2464 308.638 33.4955C309.152 38.0005 309.421 42.523 309.649 47.0472C309.852 51.575 309.848 56.1132 309.421 60.6934C309.156 62.9931 308.946 65.2648 308.051 67.6868C307.935 67.9909 307.82 68.2967 307.628 68.627C307.539 68.7895 307.462 68.945 307.355 69.111L306.942 69.63C306.834 69.7908 306.574 69.983 306.339 70.1403C306.122 70.3098 305.836 70.4391 305.469 70.5003C305.299 70.5352 305.124 70.558 304.962 70.5702L304.736 70.5597L304.281 70.5317C303.671 70.4881 303.054 70.4269 302.372 70.2626C302.03 70.1753 301.671 70.0757 301.25 69.8502C301.047 69.7436 300.806 69.5776 300.577 69.34C300.344 69.0866 300.131 68.7179 300.063 68.3107L300.049 68.2268L300.047 68.1954L299.734 61.6388L299.731 61.5531V61.5496L299.956 55.9157L299.946 55.6693C299.97 55.6693 299.879 55.5942 300.079 55.8633C300.091 55.8878 300.309 56.0713 300.521 56.0695C300.671 56.1097 300.942 55.9804 300.951 55.9612C301.077 55.8668 301.075 55.8458 301.089 55.8284C301.066 55.8091 300.958 56.1324 300.907 56.3299L300.531 57.658L299.776 60.3299L299.732 60.4854L299.664 60.5693C297.035 63.8179 294.472 67.1189 291.951 70.4531L291.786 70.6681L291.5 70.6733C287.526 70.724 283.552 70.8725 279.578 71.0053L279.307 71.0141L279.033 70.8218L270.427 64.7947L270.172 64.6147L270.013 64.2583L265.027 53.0306L264.91 52.7668L264.905 52.419L264.697 38.0022L264.691 37.6702L264.836 37.3032C266.361 33.457 267.996 29.6597 269.581 25.8397L269.784 25.3504L270.205 25.0516L279.127 18.7152L279.617 18.3674L280.155 18.3797C284.194 18.474 288.232 18.5981 292.271 18.8305L292.937 18.869L293.253 19.2814L299.909 27.9419L300.042 28.1132L300.063 28.2565C300.159 28.9153 300.26 29.5741 300.39 30.2154C300.454 30.5317 300.524 30.8585 300.612 31.1276L300.673 31.2919C300.683 31.3181 300.685 31.3163 300.67 31.3041C300.67 31.3041 300.61 31.2499 300.573 31.2412C300.512 31.1992 300.348 31.1853 300.257 31.2202C299.897 31.4387 300.096 31.395 300.063 31.3495C300.082 31.3024 300.101 31.2342 300.117 31.1643C300.374 29.9323 300.346 28.5588 300.43 27.2027C300.537 25.8432 300.736 24.4697 301.281 23.18C301.565 22.5457 301.979 21.9358 302.566 21.5164C303.15 21.09 303.879 20.8995 304.579 20.9118Z" fill="#7FBB48"/>
    <path fill-rule="evenodd" clip-rule="evenodd" d="M293.619 62.8451C289.617 63.3519 285.287 63.7888 280.848 64.0422L280.218 64.0789L279.732 63.4585C277.328 60.3882 274.977 57.2811 272.711 54.1147L272.405 53.6865L272.388 53.0784C272.351 51.7398 272.328 50.403 272.346 49.0644C272.36 47.7276 272.33 46.3908 272.383 45.0522L272.599 37.026L272.613 36.507L272.863 36.1452C274.984 33.0522 277.231 30.0395 279.524 27.0583L279.897 26.5742L280.367 26.6022C282.561 26.7402 284.757 26.9097 286.953 26.9919C289.149 27.0827 291.345 27.0985 293.54 27.0513L293.806 27.046L293.984 27.2715C295.212 28.839 296.514 30.3471 297.848 31.8324L301.826 36.3077L302.058 36.5699L302.1 37.1221C302.292 39.7328 302.347 42.3453 302.308 44.9561C302.277 47.5668 302.2 50.1776 302.072 52.7901L302.048 53.2846L301.819 53.566C299.119 56.8914 296.339 60.0981 293.619 62.8451ZM293.46 62.5341C295.547 58.6809 297.575 55.289 299.684 52.0124L299.43 52.7901C299.305 50.1776 299.226 47.5668 299.194 44.9561C299.156 42.3453 299.21 39.7328 299.404 37.1221L299.677 37.9364L296.443 32.8984C295.373 31.2121 294.271 29.5502 293.096 27.9443L293.54 28.1644C291.345 28.1173 289.149 28.133 286.953 28.2238C284.757 28.306 282.561 28.4772 280.367 28.6135L281.208 28.1574C279.4 31.4567 277.543 34.7228 275.564 37.9084L275.827 37.026L276.043 45.0522C276.096 46.3908 276.066 47.7276 276.08 49.0644C276.098 50.403 276.075 51.7398 276.038 53.0784L275.715 52.0421C277.872 55.2837 279.944 58.5847 281.961 61.9207L280.848 61.3353C284.871 61.5904 289 62.0273 293.46 62.5341Z" fill="#7FBB48"/>
    <path fill-rule="evenodd" clip-rule="evenodd" d="M355.739 62.09L351.124 62.1459C349.587 62.1809 348.056 62.2979 346.524 62.3696L346.384 62.3748L346.269 62.277C344.69 60.9436 343.056 59.675 341.451 58.3713L341.246 58.2053L341.23 57.8785C340.961 52.0646 340.507 46.2507 340.307 40.4368C340.092 34.6352 340.104 28.7793 339.986 23.0213C339.956 20.1362 339.858 17.2546 339.699 14.3992C339.55 11.5508 339.332 8.67793 338.767 6.04097C338.618 5.39439 338.444 4.76879 338.232 4.23406C338.061 3.74302 337.643 3.30789 337.874 3.48439L334.073 3.43371L329.711 3.3341C328.237 3.30789 326.793 3.21353 325.497 3.32012C324.198 3.41099 322.885 3.73603 322.277 4.31445C321.707 4.77578 321.614 6.08815 322.207 6.712C322.817 7.45294 324.198 7.87408 325.529 8.04709C326.219 8.15718 326.87 8.17116 327.641 8.23232C328.524 8.28474 329.391 8.61852 330.085 9.13053C331.477 10.1808 332.118 11.6731 332.679 13.0624C333.2 14.4848 333.505 15.9405 333.783 17.3927C334.29 20.3005 334.498 23.224 334.665 26.1424C334.98 37.8138 335.828 49.4119 335.772 61.0502L335.267 59.8951C338.157 62.6142 341.021 65.363 343.795 68.2079L342.951 67.8777L349.697 68.2429L356.414 68.5749C357.474 68.5627 358.577 68.4386 359.413 67.8689C360.25 67.3045 360.614 66.2403 360.561 65.1743C360.574 64.0996 359.934 63.128 358.944 62.6894C357.974 62.2211 356.843 62.1092 355.739 62.09ZM355.739 61.7405C356.872 61.744 358.042 61.8279 359.121 62.3224C360.226 62.775 361.014 63.9388 361.079 65.1376C361.217 66.2857 360.876 67.654 359.848 68.4404C358.858 69.232 357.631 69.4958 356.474 69.6304L342.951 70.3696L342.531 70.3923L342.105 70.0393C339.045 67.502 336.076 64.8685 333.132 62.2053L332.636 61.7545L332.627 61.0502C332.489 49.4312 333.604 37.7684 333.55 26.1878C333.47 23.2992 333.23 20.4106 332.688 17.5971C332.394 16.1991 332.027 14.8169 331.503 13.5237C330.97 12.2568 330.221 11.0283 329.209 10.3817C328.702 10.0672 328.155 9.90292 327.58 9.90467C326.901 9.89593 326.092 9.92739 325.338 9.85923C323.833 9.7072 322.135 9.55692 320.653 8.19213C319.917 7.5141 319.523 6.43939 319.487 5.50099C319.415 4.56608 319.735 3.41973 320.441 2.63685C321.905 1.08508 323.672 0.828201 325.204 0.581805C325.992 0.471713 326.765 0.440259 327.529 0.412299L329.711 0.356379L334.073 0.256772L337.346 0.209589L337.891 0.200852C337.947 0.174639 338.611 0.248034 338.98 0.370359C339.395 0.496178 339.659 0.728594 339.977 0.948778C340.25 1.1742 340.388 1.38565 340.587 1.61632C340.928 2.06542 341.12 2.47434 341.321 2.88849C341.671 3.69583 341.903 4.46997 342.105 5.23363C343.487 11.2712 343.596 17.0921 343.729 22.9654C343.746 28.8352 343.66 34.6089 343.475 40.4368C343.276 46.2507 342.821 52.0646 342.552 57.8785L342.332 57.3875C343.806 58.8379 345.248 60.3233 346.748 61.744L346.491 61.6531L355.739 61.7405Z" fill="#7FBB48"/>
    <path fill-rule="evenodd" clip-rule="evenodd" d="M454.456 6.80575C449 7.20942 443.654 7.50475 438.353 7.72843C437.704 7.76862 436.998 7.77037 436.4 7.84027C435.823 7.91541 435.25 7.97308 434.73 8.19326C434.178 8.31559 433.723 8.66508 433.222 8.89225C432.798 9.27496 432.304 9.53184 431.945 10.0054C430.372 11.6917 429.361 14.0334 428.646 16.4589C427.272 21.3728 426.798 26.6607 426.597 31.9294C426.403 37.1946 426.396 42.5751 426.426 47.9102C426.454 50.5786 426.52 53.2436 426.655 55.8963C426.786 58.5437 426.935 61.1981 427.318 63.7582C427.513 65.0164 427.777 66.3148 428.185 67.3056C428.284 67.5485 428.405 67.7512 428.487 67.8543C428.611 67.9749 428.482 67.9103 428.471 67.9312C428.835 67.9435 429.127 67.8386 429.461 67.5206C430.127 66.867 430.594 65.6175 430.872 64.3995C431.16 63.1588 431.328 61.8552 431.444 60.5428C431.659 57.96 431.547 55.0977 432.438 52.4257C432.858 51.0924 433.498 49.7713 434.514 48.7228C435.54 47.6883 436.881 46.9806 438.279 46.6765C439.703 46.348 441.091 46.4633 442.409 46.3917L446.439 46.2711L454.497 45.9128L453.998 46.0352C457.047 44.3174 460.058 42.5245 463.14 40.8696L462.544 41.4288C464.292 38.3375 466.119 35.2951 467.985 32.2754L467.766 33.067C467.792 28.901 467.887 24.7368 467.993 20.5725L468.181 21.2453C466.457 18.1417 464.735 15.0347 463.067 11.8962L463.42 12.2265C461.932 11.3737 460.462 10.4563 458.965 9.56504C457.469 8.67382 455.965 7.76163 454.456 6.80575ZM454.539 6.46674C456.138 7.11157 457.745 7.80182 459.357 8.5113C460.969 9.22253 462.609 9.90755 464.229 10.6572L464.418 10.7446L464.583 10.9875C466.569 13.9355 468.5 16.915 470.431 19.8962L470.607 20.1706L470.618 20.5725C470.723 24.7368 470.819 28.901 470.845 33.067L470.847 33.4777L470.625 33.8587C468.838 36.9255 467.011 39.9679 465.105 42.9648L464.861 43.3493L464.509 43.524C461.373 45.0723 458.165 46.4843 454.997 47.9696L454.719 48.1007L454.497 48.0902L446.439 47.7337L442.409 47.6132C441.049 47.5869 439.722 47.4838 438.508 47.7477C437.281 47.9958 436.134 48.5638 435.285 49.462C434.438 50.3637 433.872 51.5258 433.519 52.7525C433.181 53.988 433.017 55.2846 432.975 56.59L433.012 60.618C432.987 61.9863 432.914 63.3633 432.694 64.7595C432.438 66.1418 432.181 67.6062 431.066 68.9954C430.513 69.6787 429.522 70.2467 428.531 70.2746C428.249 70.3008 427.793 70.2257 427.492 70.0754C427.185 69.9286 426.929 69.7329 426.746 69.5459C426.365 69.1632 426.132 68.7858 425.938 68.4258C425.19 66.9858 424.908 65.621 424.599 64.251C423.515 58.7988 423.249 53.4026 423.001 48.0011C422.788 42.5996 422.623 37.2313 422.859 31.7652C423.143 26.327 423.713 20.8189 425.52 15.4541C426.436 12.7979 427.713 10.091 429.973 7.97308C430.485 7.40864 431.208 7.02594 431.833 6.57684C432.559 6.26403 433.25 5.85687 434.035 5.73979C434.795 5.51611 435.566 5.49514 436.33 5.47242C437.073 5.46194 437.711 5.52135 438.405 5.54232C443.849 5.76774 449.25 6.06307 454.539 6.46674Z" fill="#7FBB48"/>
    <path fill-rule="evenodd" clip-rule="evenodd" d="M454.453 39.7906C451.99 40.1488 449.413 40.4459 446.78 40.6888C445.46 40.7901 444.131 40.9247 442.786 40.9981L440.767 41.1239C440.089 41.1606 439.286 41.1746 438.524 41.0488C436.993 40.8321 435.353 40.175 434.164 39.0199C432.959 37.8893 432.164 36.493 431.618 35.1108C430.594 32.3008 430.433 29.5031 430.505 26.7945C430.624 24.0911 430.872 21.3091 431.978 18.5987C432.536 17.2549 433.382 15.9408 434.573 14.929C435.779 13.9294 437.299 13.3702 438.746 13.2392C440.243 13.0976 441.501 13.2968 442.799 13.3598C444.098 13.4454 445.397 13.4961 446.694 13.5153C449.29 13.5799 451.888 13.4943 454.484 13.2881L454.733 13.2689L455.021 13.5048C457.572 15.5913 460.217 17.5799 462.659 19.78L463.109 20.1855L463.131 20.8862C463.193 22.8399 463.168 24.7936 463.11 26.749C463.098 27.7259 463.063 28.7027 463.011 29.6796C462.96 30.6564 462.937 31.6333 462.86 32.6119L462.813 33.227L462.479 33.5153C459.82 35.815 457.095 37.9749 454.453 39.7906ZM454.322 39.4673C456.486 36.6049 458.57 34.0868 460.719 31.7084L460.336 32.6119C460.261 31.6333 460.238 30.6564 460.186 29.6796C460.133 28.7027 460.1 27.7259 460.088 26.749C460.03 24.7936 460.004 22.8399 460.067 20.8862L460.537 21.9906C458.238 19.642 456.14 17.0819 453.948 14.6214L454.484 14.8381C451.888 14.6319 449.29 14.5446 446.694 14.611C445.397 14.6302 444.098 14.6809 442.799 14.7647C441.507 14.8766 440.148 14.8801 439.08 15.1632C436.804 15.7206 435.493 17.4961 434.812 19.6647C434.132 21.8508 433.977 24.3305 434.041 26.7997C434.246 31.6106 435.01 37.04 439.11 37.9033C440.066 38.1374 441.358 38.1619 442.617 38.2598C443.87 38.3332 445.138 38.466 446.416 38.5691C448.974 38.812 451.593 39.1073 454.322 39.4673Z" fill="#7FBB48"/>
    <path fill-rule="evenodd" clip-rule="evenodd" d="M493.381 69.9275C495.546 69.7213 497.666 69.585 499.775 69.419C501.881 69.2425 503.958 69.1656 506.027 69.0363L505.467 69.1971C508.583 66.9865 511.738 64.8371 514.906 62.7086L514.322 63.3622C515.994 59.5561 517.707 55.7693 519.461 52.0017L519.281 52.7969C519.219 50.2647 519.272 47.7344 519.263 45.204C519.265 42.6719 519.345 40.1415 519.382 37.6094L519.555 38.3661C517.812 34.5461 516.011 30.754 514.333 26.9008L514.864 27.4967C511.681 25.363 508.551 23.1419 505.417 20.9279L505.931 21.0782L499.631 20.8055C497.532 20.7356 495.434 20.671 493.334 20.664L493.624 20.5801C490.323 22.581 487.1 24.7025 483.919 26.8938L484.192 26.5897L479.309 38.2193L479.449 37.6094C479.557 40.1415 479.613 42.6719 479.612 45.204C479.627 47.7344 479.557 50.2647 479.535 52.7969L479.384 52.145C481.133 55.9319 482.835 59.7396 484.468 63.5824L484.077 63.149C485.612 64.2307 487.164 65.3036 488.701 66.4517C490.247 67.5894 491.815 68.7113 493.381 69.9275ZM493.285 70.263C491.582 69.4627 489.883 68.5645 488.159 67.6837C486.426 66.8152 484.71 65.8698 482.975 64.9332L482.759 64.8144L482.584 64.4998C480.564 60.8458 478.613 57.1586 476.708 53.4487L476.561 53.1621L476.557 52.7969C476.535 50.2647 476.466 47.7344 476.48 45.204C476.479 42.6719 476.535 40.1415 476.643 37.6094L476.659 37.2232L476.783 36.9995L482.86 25.9467L482.981 25.73L483.134 25.6426C486.491 23.7343 489.804 21.7544 493.044 19.6557L493.171 19.5736L493.334 19.5718C495.434 19.5648 497.532 19.5002 499.631 19.4303L505.931 19.1594L506.161 19.1489L506.445 19.3079C509.786 21.1935 513.13 23.0738 516.42 25.0397L516.735 25.2284L516.952 25.6356C518.929 29.3455 520.782 33.1131 522.691 36.8528L522.858 37.1795L522.865 37.6094C522.901 40.1415 522.982 42.6719 522.983 45.204C522.975 47.7344 523.029 50.2647 522.968 52.7969L522.957 53.2477L522.786 53.592C520.95 57.3211 519.074 61.0293 517.156 64.7182L516.92 65.1708L516.571 65.3735C513.265 67.2818 509.946 69.1691 506.588 70.9935L506.266 71.1682L506.027 71.1542C503.866 71.0267 501.71 70.948 499.586 70.7733C497.464 70.6055 495.352 70.471 493.285 70.263Z" fill="#7FBB48"/>
    <path fill-rule="evenodd" clip-rule="evenodd" d="M505.999 62.8783C502.011 63.3798 497.72 63.8045 493.327 64.0579L492.774 64.0911L492.294 63.5703C489.582 60.6415 486.904 57.6865 484.325 54.6494L483.928 54.1811L483.911 53.4925C483.876 52.1155 483.846 50.7385 483.863 49.3597C483.877 47.9827 483.849 46.6057 483.898 45.2269L484.12 36.963L484.136 36.3514L484.482 35.9443C487.113 32.8582 489.893 29.8927 492.689 26.9429L493.038 26.5742L493.425 26.5934C495.507 26.7053 497.591 26.8905 499.673 26.9394C501.757 27.0128 503.839 27.0321 505.923 26.9866L506.182 26.9796L506.359 27.1963C507.633 28.7463 508.979 30.2387 510.361 31.7066L514.473 36.1277L514.723 36.3969L514.765 36.963C514.967 39.7171 515.025 42.4729 514.976 45.2269C514.945 47.9827 514.852 50.7385 514.717 53.4925L514.693 54.0168L514.429 54.3086C511.642 57.3842 508.787 60.3392 505.999 62.8783ZM505.848 62.562C508.062 58.9517 510.205 55.7538 512.418 52.6782L512.13 53.4925C511.995 50.7385 511.904 47.9827 511.871 45.2269C511.822 42.4729 511.88 39.7171 512.083 36.963L512.375 37.7966L508.988 32.797C507.868 31.1247 506.714 29.4785 505.488 27.8883L505.923 28.098C503.839 28.0526 501.757 28.0701 499.673 28.1435C497.591 28.1941 495.507 28.3794 493.425 28.4895L494.159 28.1417C491.827 31.4707 489.477 34.7857 486.979 37.9801L487.342 36.963L487.563 45.2269C487.612 46.6057 487.584 47.9827 487.599 49.3597C487.617 50.7385 487.586 52.1155 487.552 53.4925L487.136 52.3375C489.622 55.4515 492.007 58.6476 494.36 61.87L493.327 61.3825C497.332 61.6376 501.437 62.0622 505.848 62.562Z" fill="#7FBB48"/>
    <path d="M563.999 62.1245C563.076 62.1245 562.156 61.8134 561.419 61.2577C560.646 60.723 560.163 59.9262 559.66 59.1765C558.747 57.602 558.24 55.8615 557.758 54.1367C556.88 50.6557 556.441 47.0856 556.139 43.5277C555.997 41.726 555.871 39.9978 555.705 38.2905C555.527 36.5779 555.277 34.8916 554.95 33.2455C554.261 30.0021 553.149 26.7693 550.999 24.8785C549.952 23.9331 548.696 23.325 547.257 23.0995C545.906 22.8898 544.044 22.9772 542.378 23.0192C540.694 23.0873 539.006 23.2551 537.56 23.6552C536.855 23.8475 536.213 24.1708 536.009 24.4049C535.885 24.5237 535.883 24.5412 535.869 24.6216C535.839 24.7107 535.862 25.0165 535.922 25.1231C536.005 25.7155 537.516 26.3866 539.07 26.6015C539.857 26.7326 540.682 26.8095 541.523 26.8409C541.885 26.8479 542.53 26.9126 543.035 26.9685C543.572 27.103 544.114 27.2044 544.619 27.456C546.747 28.3245 547.99 30.2538 548.726 31.9978C549.446 33.7959 549.801 35.6238 550.006 37.4307C550.427 41.0498 550.296 44.6146 550.093 48.1743C549.964 49.9515 549.805 51.7357 549.453 53.5024C549.102 55.2621 548.67 57.0393 547.799 58.6907C546.999 60.3316 545.537 61.913 543.577 62.4478C543.098 62.6033 542.61 62.6767 542.117 62.7169L540.799 62.8165C539.946 62.8864 539.109 63.0122 538.311 63.1975C537.523 63.3844 536.762 63.657 536.21 64.031C535.658 64.4277 535.43 64.8191 535.427 65.3207C535.138 65.6719 536.836 66.4373 538.415 66.6767C541.659 67.2883 545.179 67.4002 548.647 67.5732C552.137 67.6745 555.649 67.8563 559.144 67.9052C560.892 67.9279 562.639 67.8965 564.366 67.7602C566.076 67.6064 567.844 67.4107 569.321 66.7274C570.984 66.1874 570.506 63.8807 569.038 63.1118C567.56 62.2748 565.728 62.1717 563.999 62.1245ZM563.999 61.775C565.765 61.7872 567.601 61.8589 569.274 62.6959C570.096 63.1048 570.842 63.9104 571.003 64.8978C571.083 65.3346 571.143 65.941 570.839 66.4216C570.589 66.9126 570.183 67.2342 569.786 67.5138C568.139 68.5221 566.345 68.9065 564.585 69.2875C562.816 69.6404 561.038 69.9008 559.258 70.0948C555.698 70.5055 552.142 70.6924 548.57 70.647C544.992 70.6016 541.409 70.4093 537.745 69.5076C536.824 69.2752 535.908 68.9607 534.949 68.419C534.481 68.1568 533.974 67.7968 533.53 67.2254C533.322 66.9423 533.115 66.5526 533.032 66.1629C532.993 65.9567 532.969 65.747 532.955 65.5408C532.958 65.3696 532.979 65.2263 532.995 65.069C533.081 64.4487 533.322 63.8073 533.713 63.2936C534.109 62.7903 534.589 62.4233 535.074 62.149C536.047 61.6282 537.018 61.422 537.958 61.284C538.899 61.1581 539.824 61.1144 540.735 61.1267C541.689 61.1232 542.485 61.235 543.221 61.0568C544.735 60.7615 546.011 59.6134 546.805 58.1472C548.39 55.1695 548.805 51.5766 548.906 48.1166C549.013 44.6269 548.742 41.0987 548.116 37.7313C547.777 36.0554 547.285 34.4198 546.556 32.9938C545.796 31.6098 544.815 30.4215 543.574 30.0248C543.278 29.885 542.937 29.8641 542.617 29.7889C542.243 29.7872 542.007 29.7522 541.486 29.768C540.561 29.7872 539.621 29.7592 538.656 29.6561C537.691 29.553 536.701 29.3695 535.668 28.9449C534.675 28.5482 533.451 27.7514 532.876 26.3656C532.591 25.6614 532.488 25.062 532.554 24.2774C532.605 23.477 533.012 22.6522 533.504 22.1419C534.505 21.0655 535.565 20.6863 536.526 20.349C538.472 19.7409 540.322 19.5294 542.158 19.3826C544.011 19.269 545.705 19.1275 547.85 19.4211C549.899 19.7269 551.978 20.667 553.518 22.1297C555.067 23.5853 556.1 25.3783 556.833 27.1729C557.59 28.9764 557.98 30.8235 558.265 32.6583C558.833 36.3053 558.653 40.017 558.44 43.4858C558.256 46.9807 558.268 50.4862 558.711 53.9462C558.933 55.671 559.378 57.3713 560.114 58.9283C560.87 60.4521 562.249 61.7628 563.999 61.775Z" fill="#7FBB48"/>
    <path fill-rule="evenodd" clip-rule="evenodd" d="M558.264 6.48053C558.306 5.18914 557.349 3.93094 556.33 3.82085C555.849 3.71425 555.4 3.74221 554.928 3.72474C554.458 3.70377 553.944 3.70726 553.407 3.73522C552.325 3.79638 551.412 3.86978 550.833 4.21753C550.284 4.53557 549.727 5.35864 549.398 6.54869C549.061 7.68456 549.218 9.03712 550.167 9.67844C551.122 10.3372 552.388 9.95455 553.472 9.73262C554.618 9.47574 555.445 9.43205 556.39 9.22934C557.388 9.04585 558.342 7.77368 558.264 6.48053ZM558.613 6.48053C558.599 7.14808 558.622 7.81037 558.591 8.54956C558.538 9.27128 558.398 10.1328 557.888 10.879C557.391 11.6217 556.619 12.1896 555.825 12.4465C555.029 12.7138 554.227 12.754 553.484 12.6474C551.991 12.4168 550.491 11.6059 549.428 10.5295C548.328 9.44952 547.826 7.9991 547.484 6.56791C547.335 5.84445 547.211 5.04934 547.365 4.19656C547.505 3.35252 547.937 2.44557 548.629 1.75531C550.047 0.346833 551.896 -0.0358676 553.393 0.00257728C554.16 0.0357796 554.958 0.145872 555.757 0.441198C556.549 0.738272 557.325 1.31145 557.841 2.05588C558.37 2.80206 558.549 3.66532 558.605 4.39752C558.645 5.14545 558.619 5.81299 558.613 6.48053Z" fill="#7FBB48"/>
    <path fill-rule="evenodd" clip-rule="evenodd" d="M588.922 53.8882C588.094 53.9057 587.242 53.9966 586.529 54.3653C585.809 54.7253 585.361 55.4382 585.293 56.2386L585.269 56.111C586.653 58.7025 588.12 61.2521 589.548 63.8192L589.403 63.6689L600.208 69.4269L599.788 69.3133C605.365 69.1053 610.942 68.817 616.519 68.658L615.575 68.9953C618.47 66.4527 621.422 63.9817 624.355 61.4898L623.712 62.8441L623.598 49.7729L624.317 51.2425L616.049 44.803L616.879 45.1682C611.519 44.2193 606.197 43.1359 600.902 42.042L600.571 41.9738L600.318 41.8131L594.97 38.3932L594.183 37.8899L594.192 36.9917L594.255 31.0328L594.264 30.1486L594.975 29.7012L600.028 26.5138L600.428 26.2604L600.846 26.2691C605.43 26.3687 610.012 26.4054 614.594 26.5557L615.654 26.5907L615.79 27.5745C615.993 29.0581 616.255 30.5435 616.736 31.8821C617.199 33.2032 617.949 34.4456 618.93 34.6501C619.444 34.7724 619.981 34.699 620.341 34.3845C620.743 34.0874 621.044 33.4775 621.252 32.8292C621.665 31.4994 621.75 29.9633 621.757 28.4552L622.007 28.983C618.916 26.1328 615.726 23.398 612.589 20.6003L612.962 20.7383C610.381 20.7156 607.801 20.6824 605.222 20.7139C602.641 20.7296 600.061 20.7383 597.482 20.7977L597.882 20.6527C594.807 23.2879 591.795 26 588.76 28.6842L589.099 27.9572L589.47 40.5479L588.926 39.4802C592.145 41.6488 595.316 43.8803 598.486 46.1154L597.837 45.8428L605.743 47.2215L613.593 48.7209L613.942 48.7873L614.18 48.9603L618.526 52.146L619.121 52.5811L619.096 53.2346L618.853 59.5763L618.829 60.1774L618.395 60.4605L613.654 63.5501L613.397 63.7178L613.154 63.7091L601.327 63.267L601.183 63.2617L601.094 63.1971C599.818 62.2744 598.512 61.3972 597.22 60.499C595.919 59.613 594.638 58.699 593.323 57.8358L593.255 57.7904L593.234 57.7117C592.959 56.6894 592.524 55.6846 591.774 54.9612C591.033 54.2255 589.978 53.8812 588.922 53.8882ZM588.922 53.5387C590.036 53.516 591.214 53.8742 592.041 54.6781C592.879 55.4679 593.349 56.5374 593.65 57.5999L593.561 57.4758C594.874 58.3408 596.22 59.1586 597.549 60.0009C598.883 60.8345 600.206 61.6873 601.557 62.4928L601.327 62.423L613.154 61.9826L612.656 62.1399L617.143 58.6938L616.685 59.5763L616.442 53.2346L617.012 54.3216L612.512 51.3578L613.098 51.5973L605.182 50.2971L597.316 48.8974L596.945 48.8327L596.667 48.6248C593.555 46.3111 590.443 43.9957 587.38 41.6138L586.816 41.177L586.835 40.5479L587.206 27.9572L587.22 27.4871L587.545 27.2303C590.728 24.7226 593.937 22.2447 597.08 19.6898L597.265 19.5396L597.482 19.5448C600.061 19.6042 602.641 19.6147 605.222 19.6287C607.801 19.6619 610.381 19.6269 612.962 19.6042L613.166 19.6025L613.334 19.744C616.544 22.4544 619.699 25.2294 622.957 27.8891L623.193 28.083L623.205 28.4168C623.268 30.007 623.284 31.6199 622.86 33.294C622.628 34.1154 622.31 35.0188 621.507 35.737C620.712 36.4832 619.537 36.7086 618.549 36.5112C617.493 36.3312 616.626 35.6549 616.051 34.9454C615.456 34.2255 615.058 33.4478 614.727 32.6719C614.07 31.1114 613.71 29.53 613.4 27.9537L614.594 28.9725C610.012 29.1228 605.43 29.1595 600.846 29.2591L601.664 29.0144L596.716 32.3626L597.437 31.0328L597.5 36.9917L596.722 35.5902L602.141 38.8965L601.559 38.6658L609.542 40.118L617.504 41.5003L617.969 41.5806L618.336 41.8672L626.607 48.3032L627.334 48.8694L627.326 49.7729L627.214 62.8441L627.207 63.7021L626.57 64.2001C623.542 66.5767 620.532 68.976 617.463 71.3037L617.002 71.6532L616.519 71.6392C610.942 71.4802 605.365 71.1936 599.788 70.9839L599.531 70.9752L599.367 70.8703L589.019 64.3295L588.917 64.2648L588.874 64.1774C587.545 61.5562 586.255 58.914 584.882 56.3172L584.852 56.2596L584.858 56.1879C584.938 55.2879 585.517 54.3985 586.349 54.0158C587.167 53.6121 588.062 53.544 588.922 53.5387Z" fill="#7FBB48"/>
    <path fill-rule="evenodd" clip-rule="evenodd" d="M652.044 69.9275C654.209 69.7213 656.33 69.585 658.438 69.419C660.545 69.2425 662.622 69.1656 664.69 69.0363L664.13 69.1971C667.246 66.9865 670.402 64.8371 673.57 62.7086L672.986 63.3622C674.657 59.5561 676.37 55.7693 678.124 52.0017L677.944 52.7969C677.883 50.2647 677.935 47.7344 677.926 45.204C677.928 42.6719 678.008 40.1415 678.045 37.6094L678.218 38.3661C676.475 34.5461 674.674 30.754 672.996 26.9008L673.528 27.4967C670.344 25.363 667.214 23.1419 664.08 20.9279L664.594 21.0782L658.295 20.8055C656.195 20.7356 654.097 20.671 651.997 20.664L652.287 20.5801C648.987 22.581 645.763 24.7025 642.583 26.8938L642.855 26.5897L637.972 38.2193L638.112 37.6094C638.221 40.1415 638.277 42.6719 638.275 45.204C638.291 47.7344 638.221 50.2647 638.198 52.7969L638.048 52.145C639.796 55.9319 641.499 59.7396 643.132 63.5824L642.74 63.149C644.275 64.2307 645.828 65.3036 647.364 66.4517C648.91 67.5894 650.478 68.7113 652.044 69.9275ZM651.948 70.263C650.245 69.4627 648.546 68.5645 646.822 67.6837C645.09 66.8152 643.373 65.8698 641.639 64.9332L641.422 64.8144L641.247 64.4998C639.228 60.8458 637.277 57.1586 635.371 53.4487L635.224 53.1621L635.221 52.7969C635.198 50.2647 635.13 47.7344 635.144 45.204C635.142 42.6719 635.198 40.1415 635.306 37.6094L635.322 37.2232L635.446 36.9995L641.523 25.9467L641.644 25.73L641.798 25.6426C645.154 23.7343 648.467 21.7544 651.707 19.6557L651.835 19.5736L651.997 19.5718C654.097 19.5648 656.195 19.5002 658.295 19.4303L664.594 19.1594L664.825 19.1489L665.108 19.3079C668.449 21.1935 671.793 23.0738 675.084 25.0397L675.398 25.2284L675.615 25.6356C677.592 29.3455 679.446 33.1131 681.355 36.8528L681.521 37.1795L681.528 37.6094C681.565 40.1415 681.645 42.6719 681.647 45.204C681.638 47.7344 681.692 50.2647 681.631 52.7969L681.62 53.2477L681.449 53.592C679.613 57.3211 677.737 61.0293 675.82 64.7182L675.584 65.1708L675.234 65.3735C671.928 67.2818 668.61 69.1691 665.251 70.9935L664.929 71.1682L664.69 71.1542C662.529 71.0267 660.373 70.948 658.249 70.7733C656.127 70.6055 654.015 70.471 651.948 70.263Z" fill="#7FBB48"/>
    <path fill-rule="evenodd" clip-rule="evenodd" d="M664.662 62.8783C660.674 63.3798 656.384 63.8045 651.99 64.0579L651.438 64.0911L650.957 63.5703C648.245 60.6415 645.567 57.6865 642.988 54.6494L642.591 54.1811L642.574 53.4925C642.539 52.1155 642.509 50.7385 642.527 49.3597C642.541 47.9827 642.513 46.6057 642.562 45.2269L642.784 36.963L642.799 36.3514L643.146 35.9443C645.777 32.8582 648.557 29.8927 651.352 26.9429L651.702 26.5742L652.088 26.5934C654.17 26.7053 656.254 26.8905 658.336 26.9394C660.42 27.0128 662.503 27.0321 664.587 26.9866L664.845 26.9796L665.022 27.1963C666.296 28.7463 667.643 30.2387 669.024 31.7066L673.136 36.1277L673.386 36.3969L673.428 36.963C673.631 39.7171 673.688 42.4729 673.639 45.2269C673.608 47.9827 673.515 50.7385 673.381 53.4925L673.356 54.0168L673.092 54.3086C670.305 57.3842 667.45 60.3392 664.662 62.8783ZM664.511 62.562C666.725 58.9517 668.868 55.7538 671.082 52.6782L670.793 53.4925C670.659 50.7385 670.568 47.9827 670.534 45.2269C670.485 42.4729 670.543 39.7171 670.746 36.963L671.038 37.7966L667.651 32.797C666.531 31.1247 665.377 29.4785 664.151 27.8883L664.587 28.098C662.503 28.0526 660.42 28.0701 658.336 28.1435C656.254 28.1941 654.17 28.3794 652.088 28.4895L652.822 28.1417C650.49 31.4707 648.14 34.7857 645.642 37.9801L646.006 36.963L646.226 45.2269C646.275 46.6057 646.247 47.9827 646.263 49.3597C646.28 50.7385 646.249 52.1155 646.216 53.4925L645.799 52.3375C648.286 55.4515 650.67 58.6476 653.023 61.87L651.99 61.3825C655.996 61.6376 660.101 62.0622 664.511 62.562Z" fill="#7FBB48"/>
    <path fill-rule="evenodd" clip-rule="evenodd" d="M719.46 20.3159C715.871 20.5291 712.334 20.6689 708.822 20.8349L709.337 20.6042C706.601 23.9716 703.794 27.2761 701.026 30.6138L701.264 30.191C701.112 30.7204 700.968 31.2394 700.75 31.8004C700.638 32.0852 700.536 32.3596 700.288 32.744C700.26 32.8087 700.101 32.9904 699.977 33.1075C699.96 33.1792 699.458 33.5112 699.014 33.5164C698.529 33.5689 697.865 33.0638 697.874 32.966C697.72 32.7772 697.605 32.5501 697.587 32.4784C697.276 31.6064 697.283 31.1381 697.199 30.5422C697.148 29.9865 697.122 29.4395 697.101 28.8996C697.07 27.8004 697.043 26.876 696.888 25.9201C696.739 24.9974 696.491 24.0957 696.105 23.4998C695.704 22.8777 695.349 22.7204 694.743 22.6785C694.473 22.6628 694.727 22.7204 694.736 22.661C694.769 22.6872 694.751 22.6383 694.674 22.7711C694.543 22.9196 694.348 23.3006 694.209 23.6973C693.601 25.3399 693.347 27.4404 693.136 29.4378C692.734 33.5042 692.643 37.6807 692.618 41.8415C692.615 46.011 692.601 50.1927 692.788 54.3343C692.879 56.405 692.973 58.4706 693.178 60.5012C693.382 62.5143 693.66 64.5711 694.215 66.2854L694.442 66.8673L694.683 67.3216C694.837 67.5138 694.921 67.5436 694.62 67.4562C694.62 67.4562 694.702 67.4649 694.839 67.3583C694.987 67.236 695.195 66.9512 695.369 66.6034C696.084 65.132 696.405 63.0455 696.62 61.0674C697.042 57.0534 696.933 52.8175 697.176 48.5763C697.428 44.3439 697.702 40.1202 698.82 35.8493L698.879 35.6222L699.015 35.4649L706.063 27.381L706.295 27.1136L706.612 27.1224C712.348 27.2674 718.086 27.3128 723.822 27.2989L724.357 27.2971V27.8336C724.352 34.6855 724.565 41.5357 724.798 48.3876C724.932 51.8144 724.948 55.257 725.228 58.5981C725.364 60.2705 725.569 61.9341 725.875 63.5261C726.014 64.3282 726.224 65.0866 726.453 65.8065C726.698 66.4933 727.037 67.1451 727.34 67.4265C727.632 67.6973 727.654 67.575 727.78 67.5698C727.955 67.4684 728.345 66.918 728.584 66.2644C729.077 64.9048 729.364 63.2727 729.572 61.6458C729.973 58.3535 730.015 54.9826 730.058 51.561C730.163 44.7091 730.301 37.8572 730.544 31.0053L730.696 31.5278C729.14 28.9153 727.623 26.2766 726.114 23.6326L726.371 23.8546C724.084 22.7082 721.782 21.5426 719.46 20.3159ZM719.533 19.9734C721.955 20.8611 724.395 21.81 726.854 22.7764L726.992 22.8305L727.111 22.9983C728.871 25.4815 730.623 27.9699 732.336 30.4828L732.476 30.6907L732.488 31.0053C732.731 37.8572 732.868 44.7091 732.974 51.561C733.032 54.9861 733.018 58.4793 732.658 62.0005C732.466 63.7707 732.198 65.5479 731.499 67.4072C731.097 68.3177 730.665 69.3749 729.389 70.2329C728.71 70.6087 727.847 70.8253 727.077 70.6471C726.291 70.5213 725.588 70.0687 725.158 69.5951C724.27 68.6287 723.93 67.6571 723.614 66.7362C723.348 65.817 723.14 64.9101 723.016 64.0189C722.747 62.2329 722.673 60.475 722.631 58.7292C722.563 55.2255 722.759 51.8126 722.848 48.3876C723.081 41.5357 723.294 34.6855 723.289 27.8336L723.822 28.3666C718.086 28.3526 712.348 28.398 706.612 28.5431L707.159 28.2862L700.552 36.7336L700.748 36.3491C699.942 40.274 699.956 44.5134 699.877 48.6567C699.856 50.7397 699.874 52.8279 699.914 54.9179C699.947 57.0394 699.956 59.1871 699.785 61.3522C699.566 63.5313 699.391 65.7 698.349 68.0643C698.057 68.655 697.704 69.2788 697.07 69.8642C696.421 70.4479 695.472 70.8952 694.421 70.8393C694.11 70.8044 693.79 70.7362 693.493 70.6436C693.244 70.5248 693.01 70.378 692.781 70.2225C692.337 69.9062 692.132 69.5864 691.853 69.2543C691.673 68.952 691.475 68.6357 691.326 68.3334L690.958 67.4579C690.171 65.1862 689.875 63.049 689.596 60.8978C689.344 58.7537 689.159 56.6252 689.073 54.5003C688.744 45.9987 688.749 37.6073 689.711 29.0411C690.033 26.8864 690.302 24.7685 691.215 22.4828C691.459 21.9113 691.72 21.3189 692.283 20.6794C692.512 20.3718 692.942 20.0468 693.424 19.7969C693.919 19.5767 694.704 19.505 694.956 19.5645C695.692 19.6151 696.498 19.8563 697.168 20.3141C697.846 20.7615 698.339 21.3801 698.673 21.983C699.93 24.4312 699.797 26.7746 699.785 28.8646L699.797 30.3692C699.807 30.8166 699.872 31.409 699.902 31.5348C699.914 31.5924 699.877 31.4719 699.799 31.3915C699.751 31.353 699.771 31.3548 699.556 31.1905C699.383 31.0717 699.134 31.0332 698.972 31.0437C698.65 31 698.288 31.3111 698.346 31.2657C698.309 31.2849 698.257 31.3845 698.288 31.3303C698.335 31.2796 698.453 31.0717 698.54 30.8725C698.732 30.4653 698.905 29.9813 699.075 29.5129L699.175 29.2333L699.314 29.09C702.313 25.9568 705.274 22.7903 708.306 19.685L708.545 19.4421L708.822 19.4544C712.427 19.6221 716.007 19.7602 719.533 19.9734Z" fill="#7FBB48"/>
</svg>
